# xmcd
#
# Track frame offsets:
#	150
#	16047
#	30749
#	45681
#	59747
#	75155
#	89901
#	104100
#	116798
#	130500
#
# Disc length: 1922 seconds
#
# Revision: 0
# Processed by: cddbd v1.5.2PL0 Copyright (c) Steve Scherf et al.
# Submitted via: EasyCDDAExtractor 16.0.6.1
#
DISCID=8207800a
DTITLE=Συλλογικός δίσκος - Λαϊκό τραγούδι 1954-1967, 1960-1
DYEAR=2008
DGENRE=Λαϊκή
TTITLE0=Καζαντζίδης Στέλιος - Αράπικα κορμιά [Χρήστος Κολοκοτρώνης-Στέλιος Καζ
TTITLE0=αντζίδης]
TTITLE1=Καζαντζίδης Στέλιος - Εγώ με την αξία μου [Χρήστος Κολοκοτρώνης-Στέλιο
TTITLE1=ς Καζαντζίδης]
TTITLE2=Πάνου Πόλυ - Δώστε μου μιά συμβουλή [Θεόδωρος Δερβενιώτης-Νίκος Μουρκά
TTITLE2=κος]
TTITLE3=Γαβαλάς Πάνος - Να φύγεις, να μ' αφήσεις [Βαγγέλης Περπινιάδης]
TTITLE4=Δούκισσα - Ένα ναυάγιο [Παναγιώτης Πετσάς]
TTITLE5=Αγγελόπουλος Μανώλης-Νέγκρη Πίτσα - Το πικραμένο γράμμα [Μπάμπης Μπακά
TTITLE5=λης]
TTITLE6=Διονυσίου Στράτος - Φεύγεις μακριά μου [Γιάννης Καραμπεσίνης-Δημήτρης 
TTITLE6=Γκούτης]
TTITLE7=Λύδια Γιώτα - Η θεατρίνα [Χρήστος Κολοκοτρώνης]
TTITLE8=Γαβαλάς Πάνος - Φεύγω μάννα μου στα ξένα [Πάνος Γαβαλάς-Νίκος Δαλέζιος
TTITLE8=]
TTITLE9=Καναρίδης Μανώλης - Οι θαλασσιές σου οι χάντρες [Μίμης Πλέσσας-Κώστας 
TTITLE9=Πρετεντέρης]
EXTD=
EXTT0=
EXTT1=
EXTT2=
EXTT3=
EXTT4=
EXTT5=
EXTT6=
EXTT7=
EXTT8=
EXTT9=
PLAYORDER=
